<svg width="24" height="25" viewBox="0 0 24 25" fill="none" xmlns="http://www.w3.org/2000/svg">
<path d="M21.0037 10.4055V7.40424C21.0037 6.02295 19.884 4.9032 18.5027 4.9032H5.49729C4.116 4.9032 2.99625 6.02295 2.99625 7.40424V10.9057" stroke="#AFB6BE" stroke-width="1.5" stroke-linecap="round" stroke-linejoin="round"/>
<path d="M21.0038 15.4076V18.4088C21.0038 19.7901 19.884 20.9099 18.5027 20.9099H15.0013" stroke="#AFB6BE" stroke-width="1.5" stroke-linecap="round" stroke-linejoin="round"/>
<path fill-rule="evenodd" clip-rule="evenodd" d="M18.5027 10.4055H21.0037C21.5562 10.4055 22.0041 10.8534 22.0041 11.4059V14.4072C22.0041 14.9597 21.5562 15.4076 21.0037 15.4076H18.5027C17.1214 15.4076 16.0016 14.2878 16.0016 12.9066V12.9066C16.0016 11.5253 17.1214 10.4055 18.5027 10.4055V10.4055Z" stroke="#AFB6BE" stroke-width="1.5" stroke-linecap="round" stroke-linejoin="round"/>
<path d="M12 16.9082H1.99582" stroke="#AFB6BE" stroke-width="1.5" stroke-linecap="round" stroke-linejoin="round"/>
<path fill-rule="evenodd" clip-rule="evenodd" d="M9.99915 13.907H3.99665C2.89162 13.907 1.99582 14.8028 1.99582 15.9078V19.9095C1.99582 21.0145 2.89162 21.9103 3.99665 21.9103H9.99915C11.1042 21.9103 12 21.0145 12 19.9095V15.9078C12 14.8028 11.1042 13.907 9.99915 13.907Z" stroke="#AFB6BE" stroke-width="1.5" stroke-linecap="round" stroke-linejoin="round"/>
</svg>
